<svg xmlns="http://www.w3.org/2000/svg" width="57.941" height="53.858" viewBox="0 0 57.941 53.858">
  <path id="Shape" d="M57.941,53.858H42.3V30.246L36.711,41.2H36.39l-.706,0-14.251-.011L15.643,29.779l0,24.066H0V0L14.872,0l1.32,0L29.115,26.164,41.981.014l14.874,0h1.085ZM57.17,1.1l-14.1,27.638V53.087h14.1ZM.771.77v52.3h14.1l0-29.886V.774ZM56.462.783l-14,0L29.549,27.028l6.614,13.405h.075l6.1-11.972L52.375,8.795ZM15.645.77l0,22.308v5l6.265,12.35,13.395.008-3.6-7.286L15.712.77Z" fill="#fff"/>
</svg>
