<?xml version="1.0" encoding="UTF-8"?>
<svg width="58px" height="54px" viewBox="0 0 58 54" version="1.1" xmlns="http://www.w3.org/2000/svg" xmlns:xlink="http://www.w3.org/1999/xlink">
    <!-- Generator: sketchtool 54.1 (76490) - https://sketchapp.com -->
    <title>ED23D1D8-3380-448C-89DA-041E7197AB14</title>
    <desc>Created with sketchtool.</desc>
    <g id="Page-1" stroke="none" stroke-width="1" fill="none" fill-rule="evenodd">
        <g id="Logo-hover" fill-rule="nonzero">
            <g id="MaireÌad-logo-hover-02" transform="translate(0.000000, -0.000000)">
                <polygon id="Path" fill="#FFFFFF" points="1.08283814 0.385809313 0.385809313 0.385809313 0.385809313 53.5361863 15.255286 53.5361863 15.2587583 0.389538803"></polygon>
                <g id="Group" transform="translate(14.789357, 0.257206)">
                    <path d="M0.519857143,0.5 L0.519857143,0.4945" id="Path" fill="#231F20"></path>
                    <polygon id="Path" fill="#FFFFFF" points="0.0912857143 0.5 0.0912857143 0.4945 0.948428571 0.4945"></polygon>
                </g>
                <polygon id="Path" fill="#FFFFFF" points="57.0921907 0.398412417 42.6856851 28.6770776 42.6856851 53.5486608 57.5551619 53.5486608 57.5551619 0.398412417"></polygon>
                <polygon id="Path" fill="#FFFFFF" points="35.8333259 40.6851353 15.9523149 0.385809313 15.2573437 0.385809313 15.2573437 28.2069047 21.6709091 40.8680089 35.9216763 40.8759823"></polygon>
                <g id="Group">
                    <polygon id="Path" fill="#FFFFFF" points="42.6856851 28.6770776 36.4742838 40.8759823 35.9237339 40.8780399 29.1190865 27.0670953 42.2219424 0.399827051 42.6856851 0.399827051 57.0921907 0.398412417"></polygon>
                    <path d="M57.7218315,0.0126031042 L57.7218315,0.0126031042 L57.0375344,0.0126031042 L56.8558182,0.0126031042 L56.8558182,0.0126031042 L41.9817118,0.0140177384 L29.1145854,26.2015965 L16.1921596,0 L14.8714058,0 L14.8714058,0.00372949002 L0,0 L0,53.9219956 L15.6410953,53.9219956 L15.6427672,29.8215166 L21.433765,41.2538182 L35.6826031,41.2617916 L35.6841463,41.2647494 L36.3899202,41.2620488 L36.5258537,41.2621774 L36.5255965,41.2615344 L36.7112993,41.2608914 L42.2998758,30.2892461 L42.2998758,53.9344701 L57.9409712,53.9344701 L57.9409712,0.0126031042 L57.7218315,0.0126031042 Z M14.8715344,23.2217339 L14.8694767,53.1503769 L0.771618625,53.1503769 L0.771618625,0.771618625 L14.8715344,0.775219512 L14.8715344,23.2217339 Z M21.9080532,40.4823282 L15.643153,28.1148248 L15.643153,23.1116497 L15.644439,0.771618625 L15.7123415,0.771618625 L31.7072239,33.1933614 L35.3021951,40.4897871 L21.9080532,40.4823282 Z M36.2372683,40.4910732 L36.1633215,40.4913304 L29.5491353,27.0668381 L42.4623016,0.785636364 L56.4626785,0.784350333 L52.375286,8.8075122 L42.3418004,28.5020488 L36.2372683,40.4910732 Z M43.0714945,53.1628514 L43.0714945,28.7744302 L57.1693525,1.09724169 L57.1693525,53.1628514 L43.0714945,53.1628514 Z" id="Shape" fill="#E53434"></path>
                </g>
            </g>
        </g>
    </g>
</svg>