<?xml version="1.0" encoding="utf-8"?>
<!-- Generator: Adobe Illustrator 16.0.0, SVG Export Plug-In . SVG Version: 6.00 Build 0)  -->
<!DOCTYPE svg PUBLIC "-//W3C//DTD SVG 1.1//EN" "http://www.w3.org/Graphics/SVG/1.1/DTD/svg11.dtd">
<svg version="1.1" id="Layer_1" xmlns="http://www.w3.org/2000/svg" xmlns:xlink="http://www.w3.org/1999/xlink" x="0px" y="0px"
	 width="2438.838px" height="305.109px" viewBox="0 0 2438.838 305.109" enable-background="new 0 0 2438.838 305.109"
	 xml:space="preserve">
<g>
	<path fill-rule="evenodd" clip-rule="evenodd" fill="#FFFFFF" d="M488.838,305.109c-10.608-1.985-21.447-3.162-31.784-6.103
		c-37.796-10.748-58.806-36.749-64.882-74.888c-2.164-13.579-2.88-27.506-2.954-41.281c-0.312-57.986-0.132-115.975-0.132-173.963
		c0-1.981,0-3.964,0-6.407c17.505,0,34.719,0,52.672,0c0,1.754,0,3.681,0,5.608c0,58.821-0.202,117.643,0.166,176.462
		c0.077,12.24,1.34,24.649,3.696,36.66c3.863,19.692,16.644,31.798,36,36.563c17.244,4.246,34.708,4.246,51.973,0.182
		c21.341-5.023,33.229-19.421,37.171-40.39c1.836-9.765,2.973-19.812,3.019-29.738c0.271-59.652,0.135-119.307,0.135-178.961
		c0-1.99,0-3.979,0-6.408c17.096,0,33.978,0,51.682,0c0,1.641,0,3.39,0,5.139c0,58.82,0.136,117.642-0.076,176.462
		c-0.07,19.66-1.104,39.307-8.124,58.052c-11.808,31.527-35.306,49.609-67.146,57.631c-9.958,2.509-20.266,3.626-30.414,5.38
		C509.505,305.109,499.171,305.109,488.838,305.109z"/>
	<path fill-rule="evenodd" clip-rule="evenodd" fill="#FFFFFF" d="M2438.838,301.109c-20.153-0.08-40.307-0.25-60.459-0.154
		c-3.579,0.018-5.688-1.086-7.693-4.066c-21.568-32.039-43.286-63.978-64.965-95.942c-0.451-0.665-0.917-1.319-2.312-3.324
		c0,35.218,0,69.014,0,102.977c-17.556,0-34.305,0-51.362,0c0-99.482,0-198.694,0-298.249c16.887,0,33.631,0,51.001,0
		c0,54.187,0,108.385,0,163.965c1.786-1.88,2.686-2.664,3.395-3.595c20.185-26.492,40.396-52.964,60.452-79.553
		c2.134-2.829,4.297-3.938,7.84-3.902c17.659,0.183,35.322,0.083,52.983,0.083c1.457,0,2.913,0,5.447,0
		c-1.674,2.261-2.745,3.83-3.939,5.3c-25.207,31.019-50.415,62.036-75.675,93.012c-1.6,1.962-2.628,3.375-0.721,5.961
		c28.467,38.592,56.827,77.264,85.223,115.908c0.185,0.251,0.521,0.39,0.786,0.581
		C2438.838,300.442,2438.838,300.776,2438.838,301.109z"/>
	<path fill-rule="evenodd" clip-rule="evenodd" fill="#FFFFFF" d="M1844.838,305.109c-6.422-1.675-13.062-2.775-19.225-5.128
		c-20.733-7.912-33.316-26.39-33.693-48.607c-0.577-34.046,15.512-57.353,49.473-71.482c20.563-8.556,42.213-11.82,64.29-12.876
		c4.308-0.206,8.617-0.386,13.5-0.603c0.213-11.385,1.149-22.672-4.047-33.261c-4.722-9.624-13.312-13.805-23.275-15.13
		c-27.273-3.628-52.995,1.318-76.99,14.902c-1.426,0.808-2.851,1.617-4.919,2.791c-1.006-9.08-1.966-17.603-2.886-26.129
		c-0.555-5.131-0.787-10.313-1.661-15.387c-0.553-3.214,0.639-4.426,3.396-5.437c29.498-10.82,59.874-15.541,91.221-12.761
		c8.412,0.747,16.892,2.115,25.028,4.338c25.971,7.095,41.534,25.524,44.619,52.286c0.8,6.931,1.196,13.944,1.219,20.922
		c0.117,36.494-0.04,72.989,0.112,109.482c0.046,10.979,0.787,21.956,1.193,32.935c0.054,1.449,0.008,2.901,0.008,4.626
		c-16.767,0-33.025,0-49.627,0c0-9.359,0-18.692,0-26.259c-4.429,3.92-9.653,8.936-15.283,13.444
		c-11.159,8.938-24.06,14.013-38.123,16.271c-1.463,0.234-2.888,0.701-4.33,1.061
		C1858.171,305.109,1851.505,305.109,1844.838,305.109z M1919.297,202.832c-20.41,0.573-40.211,1.287-58.559,9.944
		c-4.832,2.28-9.446,5.774-13.064,9.718c-7.046,7.681-7.959,17.134-4.339,26.619c3.512,9.201,11.263,13.229,20.669,14.161
		c15.517,1.538,28.461-3.834,38.856-15.289C1914.332,235.344,1919.334,220.317,1919.297,202.832z"/>
	<path fill-rule="evenodd" clip-rule="evenodd" fill="#FFFFFF" d="M1188.838,305.109c-6.709-1.166-13.486-2.031-20.114-3.548
		c-35.478-8.116-58.058-29.906-67.018-65.094c-8.268-32.471-8.327-65.004,3.181-96.831c16.901-46.745,57.531-68.456,105.092-63.854
		c16.881,1.634,32.615,6.446,46.254,16.909c16.098,12.349,24.764,29.21,29.376,48.543c4.084,17.115,3.102,34.392,1.834,51.686
		c-0.047,0.634-0.411,1.245-0.806,2.377c-45.495,0-91.078,0-136.617,0c-2.551,36.415,13.037,62.797,47.026,66.878
		c25.738,3.09,50.399-1.114,73.943-11.935c0.906-0.417,1.825-0.805,2.746-1.186c0.6-0.248,1.214-0.458,2.496-0.938
		c0.67,5.634,1.317,10.982,1.939,16.334c0.845,7.275,1.525,14.574,2.569,21.82c0.475,3.295-0.801,4.679-3.708,5.807
		c-16.553,6.421-33.644,10.436-51.321,12.022c-1.972,0.177-3.916,0.665-5.873,1.009
		C1209.505,305.109,1199.171,305.109,1188.838,305.109z M1151.066,157.261c28.534,0,57.026,0,85.471,0
		c3.241-23.879-18.141-45.243-42.504-42.866C1170.597,116.68,1154.383,132.755,1151.066,157.261z"/>
	<path fill-rule="evenodd" clip-rule="evenodd" fill="#FFFFFF" d="M1024.838,305.109c-6.598-0.794-13.277-1.175-19.779-2.458
		c-20.938-4.133-33.263-16.966-36.905-38.703c-1.343-8.008-2.091-16.208-2.14-24.326c-0.221-36.994-0.097-73.991-0.097-110.987
		c0-1.801,0-3.601,0-5.897c-13.822,0-27.249,0-41.126,0c0-14.533,0-28.575,0-43.289c13.568,0,27.104,0,41.036,0
		c0-21.77,0-42.877,0-64.176c16.963-4.763,33.592-9.432,50.786-14.259c0,26.154,0,51.869,0,78.192c19.188,0,37.904,0,56.969,0
		c0,14.67,0,28.729,0,43.335c-18.57,0-37.002,0-55.712,0c-0.217,1.769-0.51,3.037-0.508,4.304
		c0.062,34.492,0.054,68.985,0.342,103.476c0.046,5.429,0.989,10.965,2.345,16.239c1.985,7.727,7.411,11.93,15.422,12.796
		c12.73,1.377,25.227-0.103,38.469-3.165c0,2.447,0,4.662,0,6.877c0,10.499-0.218,21.004,0.108,31.493
		c0.126,4.054-1.347,5.683-5.08,6.106c-11.072,1.259-22.136,2.586-33.202,3.895c-1.312,0.155-2.619,0.364-3.928,0.548
		C1029.505,305.109,1027.171,305.109,1024.838,305.109z"/>
	<path fill-rule="evenodd" clip-rule="evenodd" fill="#FFFFFF" d="M804.838,305.109c-11.345-1.694-22.692-3.374-34.032-5.1
		c-1.301-0.198-2.562-0.648-4.456-1.143c1.867-14.89,3.722-29.681,5.583-44.529c8.455,2.185,16.507,4.755,24.751,6.289
		c15.298,2.847,30.733,4.128,46.136,0.539c13.386-3.119,19.884-11.81,18.446-24.294c-0.669-5.812-3.279-10.753-8.154-13.715
		c-6.646-4.038-13.688-7.466-20.718-10.823c-10.95-5.229-22.29-9.692-33.007-15.349c-23.582-12.444-34.613-32.364-32.993-58.989
		c1.641-26.975,16.154-44.71,40.559-54.911c18.87-7.888,38.731-9.229,58.836-7.947c11.253,0.717,22.462,2.118,33.775,3.219
		c0,15.114,0,29.241,0,43.371c-8.699-1.755-17.239-3.822-25.895-5.141c-12.413-1.892-24.888-2.303-37.145,1.287
		c-8.517,2.494-15.092,7.157-16.782,16.531c-1.794,9.939,1.665,18.167,10.257,23.058c10.223,5.819,21.136,10.421,31.702,15.645
		c9.235,4.565,18.799,8.627,27.523,14.03c19.358,11.989,26.849,30.298,25.096,52.448c-2.448,30.96-20.452,51.382-53.088,60.268
		c-8.945,2.436-18.253,3.54-27.395,5.256C824.171,305.109,814.505,305.109,804.838,305.109z"/>
	<path fill-rule="evenodd" clip-rule="evenodd" fill="#FFFFFF" d="M1560.272,1.673c0.828-0.121,1.462-0.295,2.095-0.294
		c33.821,0.064,67.649-0.24,101.461,0.363c20.392,0.364,39.994,4.954,57.334,16.427c24.014,15.889,33.602,38.902,31.355,66.938
		c-2.129,26.571-16.445,45.036-40.143,56.574c-1.18,0.574-2.379,1.106-3.789,1.762c6.353,2.653,12.635,4.738,18.409,7.785
		c23.078,12.174,34.859,31.556,35.756,57.586c1.483,43.13-24.113,74.517-67.278,85.91c-11.96,3.157-24.573,4.96-36.936,5.245
		c-31.475,0.726-62.978,0.244-94.469,0.234c-1.15,0-2.301-0.123-3.796-0.208C1560.272,200.654,1560.272,101.427,1560.272,1.673z
		 M1612.903,166.492c0,31.158,0,60.543,0,90.654c20.513-1.101,40.853,2.123,60.883-2.393c11.786-2.657,21.712-8.665,27.421-19.813
		c10.743-20.979,8.407-57.414-28.718-64.562C1653.289,166.682,1633.189,167.66,1612.903,166.492z M1612.856,125.26
		c14.512,0,28.522,0.667,42.447-0.143c26.591-1.547,43.163-20.852,41.593-47.367c-1.062-17.954-10.91-29.922-28.584-32.634
		c-10.283-1.578-20.882-1.201-31.345-1.471c-7.948-0.204-15.905-0.04-24.111-0.04C1612.856,71.077,1612.856,97.975,1612.856,125.26z
		"/>
	<path fill-rule="evenodd" clip-rule="evenodd" fill="#FFFFFF" d="M2066.488,79.349c0,10.676,0,20.733,0,31.224
		c2.977-3.536,5.65-7.077,8.692-10.268c20.147-21.138,45.448-27.106,73.483-24.462c13.541,1.277,26.028,5.469,36.199,15.05
		c12.653,11.92,17.229,27.337,18.775,43.954c0.584,6.286,0.639,12.637,0.646,18.958c0.05,46.99,0.027,93.98,0.028,140.972
		c0,1.803,0,3.605,0,5.75c-17.195,0-33.905,0-51.227,0c0-2.12,0.001-4.066-0.001-6.012c-0.051-47.322,0.008-94.646-0.292-141.966
		c-0.037-5.881-1.358-11.948-3.17-17.58c-3.177-9.874-10.666-14.926-20.881-15.973c-18.326-1.878-32.456,5.646-43.132,19.998
		c-11.454,15.397-15.868,33.197-15.962,52.092c-0.172,34.325-0.049,68.652-0.049,102.979c0,1.986,0,3.973,0,6.327
		c-1.511,0.179-2.771,0.455-4.03,0.458c-14.497,0.03-28.996-0.105-43.49,0.104c-3.824,0.056-4.779-1.24-4.774-4.87
		c0.085-70.651,0.085-141.304-0.001-211.956c-0.004-3.638,0.966-4.917,4.782-4.863C2036.729,79.473,2051.377,79.349,2066.488,79.349
		z"/>
	<path fill-rule="evenodd" clip-rule="evenodd" fill="#FFFFFF" d="M674.705,2.19c17.099,0,33.734,0,50.802,0
		c0,99.437,0,198.78,0,298.402c-16.925,0-33.677,0-50.802,0C674.705,201.189,674.705,101.953,674.705,2.19z"/>
	<path fill-rule="evenodd" clip-rule="evenodd" fill="#FFFFFF" d="M1380.942,300.634c-17.486,0-34.265,0-51.45,0
		c0-73.616,0-147.149,0-220.984c16.226,0,32.322,0,49.46,0c-0.659,10.364-1.317,20.708-2.07,32.534
		c15.909-27.978,38.894-40.208,70.319-36.848c-0.79,17.031-1.565,33.745-2.286,49.294c-6.923,0-13.216-0.413-19.437,0.082
		c-15.217,1.213-26.064,9.222-33.017,22.608c-8.433,16.236-10.748,33.915-11.023,51.812c-0.489,31.82-0.365,63.65-0.495,95.477
		C1380.936,296.428,1380.942,298.248,1380.942,300.634z"/>
	<path fill-rule="evenodd" clip-rule="evenodd" fill="#FFFFFF" d="M1151.066,157.261c3.316-24.506,19.53-40.581,42.967-42.866
		c24.363-2.377,45.745,18.987,42.504,42.866C1208.093,157.261,1179.601,157.261,1151.066,157.261z"/>
	<g>
		<path fill="#FFFFFF" d="M128.737,204.926c-14.665-6.167-25.227-17.099-30.944-32.265c-3.955-10.49-11.147-15.85-22.288-15.973
			c-1.367-0.015-2.735-0.021-4.102-0.034v-0.007l-1.153-0.002c-10.748-0.094-21.497-0.117-32.245-0.067l-13.403-0.028
			C11.015,156.55,0,167.564,0,181.152c0,13.587,11.015,24.602,24.602,24.602H62.75c-1.779,1.862-2.994,3.181-4.256,4.444
			C42.121,226.584,25.763,242.985,9.35,259.33c-7.176,7.146-9.269,15.804-6.771,25.27c4.826,18.294,27.271,23.802,41.083,10.16
			c17.192-16.979,34.196-34.149,51.291-51.229c0.969-0.968,2.016-1.895,3.334-3.101l-0.078,37.455c0,4.402,1.175,8.528,3.22,12.092
			c2.433,4.722,6.438,8.261,11.396,10.221c2.979,1.3,6.266,2.025,9.723,2.025c4.737,0,9.155-1.358,12.895-3.699
			c6.795-3.923,11.283-10.88,11.418-19.067c0.005-0.322,0.005-0.646,0.01-0.968c0.005-0.201,0.015-0.401,0.015-0.604v-0.93
			c0.05-4.668,0.035-9.337,0-14.007V240.1c0.043-2.378,0.101-4.755,0.197-7.131C147.651,218.851,141.674,210.366,128.737,204.926z"
			/>
		<path fill="#FFFFFF" d="M157.952,73.216c0.08,10.103,4.729,17.785,13.978,21.792c17.073,7.397,29.073,19.4,36.214,36.61
			c3.688,8.89,10.935,14.103,20.542,14.346c1.376,0.035,2.754,0.049,4.131,0.079v0.015h0.803c14.913,0.307,29.84,0.298,44.753,0
			h0.958c0.453,0,0.902-0.014,1.348-0.039c0.164-0.003,0.328-0.004,0.492-0.008c6.555-0.146,12.459-3.396,16.591-8.347
			c3.746-4.296,6.021-9.91,6.021-16.058c0-4.739-1.352-9.16-3.686-12.906c-0.153-0.25-0.312-0.494-0.474-0.738
			c-0.022-0.032-0.044-0.064-0.066-0.096c-2.271-3.401-5.369-6.216-9.063-8.012c-3.347-1.721-7.14-2.699-11.163-2.699h-16.374
			c-1.833-0.003-3.679-0.003-5.54,0h-15.831c4.182-4.239,7.5-7.642,10.86-10.999c14.62-14.604,29.33-29.121,43.849-43.826
			c7.014-7.104,9.127-15.731,6.227-25.335c-2.687-8.894-9.542-13.607-17.684-16.885c-3.667,0-7.333,0-11,0
			c-6.914,2.483-12.01,7.358-17.069,12.467c-15.36,15.509-30.909,30.831-46.397,46.212c-1.097,1.089-2.299,2.082-3.895,3.511
			l0.065-31.368c0.053-2.537,0.083-5.073,0-7.606c-0.205-6.326-2.798-11.916-7.015-15.983c-3.991-4.038-9.385-6.682-15.391-7.15
			c-0.1-0.027-0.199-0.056-0.298-0.083c-1,0-2,0-3,0c-0.059,0.017-0.117,0.037-0.176,0.055
			c-12.717,0.802-22.784,11.365-22.784,24.283v46.3h0.061C157.945,71.57,157.946,72.393,157.952,73.216z"/>
		<path fill="#FFFFFF" d="M24.602,97.572c-3.296,0-6.439,0.653-9.312,1.829c-0.02,0.008-0.039,0.015-0.058,0.023
			c-0.469,0.193-0.931,0.398-1.385,0.619c-0.25,0.121-0.494,0.249-0.737,0.378c-0.26,0.137-0.516,0.281-0.77,0.427
			c-0.157,0.092-0.319,0.177-0.473,0.272C4.754,105.432,0,113.248,0,122.174c0,13.587,11.015,24.602,24.602,24.602h0.428
			c2.241,0.241,4.595,0.321,7.085,0.211c2.215-0.097,4.433-0.161,6.65-0.211h23.088c3.07,0.043,6.141,0.092,9.209,0.133
			c12.751,0.17,21.426-5.326,26.503-17.168c6.722-15.68,18.157-26.891,33.936-33.465c10.2-4.249,15.396-11.736,15.427-22.751
			c0.04-14.458,0.287-28.925-0.055-43.372l0.012-5.706c0-12.908-10.05-23.463-22.753-24.281c-0.099-0.019-0.197-0.039-0.295-0.057
			c-1,0-2,0-3,0c-0.118,0.031-0.236,0.062-0.355,0.093c-12.475,1.049-22.274,11.499-22.274,24.245v38.064
			c-1.846-1.638-3.032-2.598-4.102-3.666C78.664,43.427,63.11,28.116,47.871,12.499C41.892,6.372,35.529,1.395,26.838,0.109
			c-1.241-0.157-1.567-0.134-3,0C16.643,1.783,9.74,4.238,5.783,10.958c-2.196,3.728-2.206,2.958-3.819,7.029
			c-1.126,4.413-1.126,7.123-1.126,8.123c1.259,8.688,6.25,15.042,12.364,20.993c15.637,15.217,30.989,30.727,46.51,46.062
			c1.284,1.27,2.987,2.115,4.495,3.157c-0.266,0.417-0.531,0.833-0.797,1.25H24.602z"/>
		<path fill="#FFFFFF" d="M294.736,200.008c4.356-3.353,7.369-8.152,8.502-13.852c0.354-1.656,0.544-3.372,0.544-5.134
			c0-13.504-10.948-24.452-24.452-24.452h-46.515v0.071c-0.298,0.001-0.597,0.002-0.896,0.003
			c-12.404,0.031-20.14,5.474-25.038,16.9c-6.515,15.196-17.041,26.437-32.874,32.224c-10.562,3.86-16.21,11.732-16.499,22.711
			c-0.442,16.816-0.507,33.664-0.006,50.478c0.394,13.213,10.385,22.591,23.232,23.218c0.294,0.018,0.59,0.026,0.887,0.034
			c0.021,0,0.042,0.001,0.064,0.001c0.176,0.004,0.352,0.014,0.529,0.014c1.006,0,1.996-0.068,2.97-0.187
			c11.266-1.218,19.367-9.064,21.044-20.202c0.057-0.352,0.105-0.706,0.147-1.062c0.034-0.301,0.065-0.602,0.089-0.906
			c0.041-0.505,0.066-1.014,0.076-1.526c0.006-0.221,0.031-0.434,0.032-0.656c0.069-10.663,0.003-21.327,0.027-31.99
			c0.004-1.554,0.182-3.107,0.329-5.482c1.962,1.86,3.29,3.054,4.545,4.32c16.538,16.68,33.029,33.406,49.612,50.041
			c7.784,7.809,18.213,9.864,27.513,5.69c16.06-7.207,19.679-27.512,6.961-40.43c-16.832-17.097-33.899-33.962-50.857-50.935
			c-1.024-1.025-2.017-2.113-3.239-3.424h37.865C285.171,205.475,290.531,203.424,294.736,200.008z"/>
	</g>
</g>
</svg>
