<?xml version="1.0" encoding="utf-8"?>
<!-- Generator: Adobe Illustrator 16.0.0, SVG Export Plug-In . SVG Version: 6.00 Build 0)  -->
<!DOCTYPE svg PUBLIC "-//W3C//DTD SVG 1.1//EN" "http://www.w3.org/Graphics/SVG/1.1/DTD/svg11.dtd">
<svg version="1.1" id="Layer_1" xmlns="http://www.w3.org/2000/svg" xmlns:xlink="http://www.w3.org/1999/xlink" x="0px" y="0px"
	 width="294.182px" height="43.472px" viewBox="2.223 208.406 294.182 43.472"
	 enable-background="new 2.223 208.406 294.182 43.472" xml:space="preserve">
<g>
	<g>
		<g>
			<path fill="#FFFFFF" d="M2.223,209.518h15.438c7.287,0,15.067,1.481,15.067,10.497c0,4.57-2.84,7.781-7.163,9.14v0.124
				c5.434,0.74,9.016,4.692,9.016,10.127c0,8.645-8.151,11.485-15.561,11.485H2.223V209.518z M11.239,226.068h6.545
				c2.841,0,5.681-1.112,5.681-4.447c0-3.457-3.334-4.322-6.175-4.322h-6.175v8.77H11.239z M11.239,243.111h8.151
				c2.841,0,6.052-1.235,6.052-4.816c0-3.953-4.323-4.57-7.41-4.57h-6.792V243.111z"/>
			<rect x="39.15" y="209.518" fill="#FFFFFF" width="9.139" height="41.373"/>
			<path fill="#FFFFFF" d="M75.336,208.406c12.844,0,22.354,8.521,22.354,21.736s-9.386,21.736-22.354,21.736
				c-12.844,0-22.354-8.521-22.354-21.736S62.369,208.406,75.336,208.406 M75.336,243.481c7.78,0,12.844-5.558,12.844-13.339
				c0-7.656-5.063-13.338-12.844-13.338c-7.781,0-12.844,5.559-12.844,13.338C62.492,237.923,67.556,243.481,75.336,243.481"/>
			<polygon fill="#FFFFFF" points="103.248,209.518 128.565,209.518 128.565,212.976 107.076,212.976 107.076,227.796 
				127.207,227.796 127.207,231.254 107.076,231.254 107.076,247.31 129.554,247.31 129.554,250.891 103.248,250.891 			"/>
			<polygon fill="#FFFFFF" points="135.481,209.518 160.182,209.518 160.182,212.976 139.31,212.976 139.31,227.796 
				158.701,227.796 158.701,231.254 139.31,231.254 139.31,250.891 135.481,250.891 			"/>
			<polygon fill="#FFFFFF" points="165.74,209.518 190.564,209.518 190.564,212.976 169.692,212.976 169.692,227.796 
				189.082,227.796 189.082,231.254 169.692,231.254 169.692,250.891 165.74,250.891 			"/>
			<polygon fill="#FFFFFF" points="196.121,209.518 221.439,209.518 221.439,212.976 199.95,212.976 199.95,227.796 
				220.081,227.796 220.081,231.254 199.95,231.254 199.95,247.31 222.304,247.31 222.304,250.891 196.121,250.891 			"/>
			<polygon fill="#FFFFFF" points="278.374,212.976 264.294,212.976 264.294,209.518 296.405,209.518 296.405,212.976 
				282.202,212.976 282.202,250.891 278.374,250.891 			"/>
			<path fill="#FFFFFF" d="M246.757,248.421c-10.498,0-17.044-8.027-17.044-18.279c0-10.25,6.546-18.277,17.044-18.277
				c7.162,0,12.597,3.828,15.19,9.51l2.841-2.471c-3.459-6.422-9.881-10.498-18.031-10.498c-12.227,0-20.749,9.139-20.749,21.736
				c0,12.721,8.522,21.736,20.749,21.736c8.645,0,15.438-4.568,18.648-11.608l-3.088-2.347
				C259.848,244.222,254.414,248.421,246.757,248.421"/>
		</g>
	</g>
</g>
</svg>
