<?xml version="1.0" encoding="utf-8"?>
<!-- Generator: Adobe Illustrator 16.0.0, SVG Export Plug-In . SVG Version: 6.00 Build 0)  -->
<!DOCTYPE svg PUBLIC "-//W3C//DTD SVG 1.1//EN" "http://www.w3.org/Graphics/SVG/1.1/DTD/svg11.dtd">
<svg version="1.1" id="Layer_1" xmlns="http://www.w3.org/2000/svg" xmlns:xlink="http://www.w3.org/1999/xlink" x="0px" y="0px"
	 width="3000.02px" height="444.134px" viewBox="-0.019 1277.934 3000.02 444.134"
	 enable-background="new -0.019 1277.934 3000.02 444.134" xml:space="preserve">
<g>
	<path fill="#FFFFFF" d="M1478.928,1318.196c0,29.314,0,55.979,0,83.699c19.067,0,37.439,0.527,55.801-0.181
		c9.18-0.348,14.832,2.472,18.359,10.776c2.292,5.292,5.651,10.066,8.473,15.012c-27.721,0-54.912,0-82.992,0
		c0,2.292,0,5.292,0,8.124c0,44.676,0,89.532,0,134.196c0,2.65,0,5.292,0.181,7.942c1.584,15.36,8.651,22.068,23.844,20.306
		c10.596-1.236,21.012-4.766,33.192-7.598c0.888,1.236,3.18,4.058,5.472,6.89c-18.9,30.19-66.744,39.204-94.645,17.832
		c-9.181-7.068-13.943-16.598-15.72-27.722c-1.057-6.707-1.416-13.416-1.416-20.136c-0.181-43.788,0-87.756,0-131.556
		c0-3.182,0-6.36,0-9.708c-23.845,0-46.621,0-70.633,0c0,3.888,0,7.067,0,10.067c0,43.787,0,87.756,0,131.557
		c0,27.372,8.473,34.26,35.316,28.428c6.888-1.416,13.248-4.416,21.012-7.068c1.764,2.293,4.235,5.125,6.359,7.944
		c-18.72,30.024-64.8,39.372-93.06,19.248c-12.013-8.472-17.484-20.664-17.664-34.788c-0.528-46.968-0.528-94.115-0.709-141.264
		c0-3.708,0-7.416,0-12.54c-19.067,1.056-37.079,2.124-57.384,3.18c7.068-9.888,13.248-19.067,19.956-27.552
		c1.235-1.584,4.765-1.416,7.416-1.584c9.708-0.18,19.248,0,30.024,0c0-11.305-0.528-21.54,0.18-31.788
		c0.349-4.235,2.124-9.18,5.124-12.012c13.596-13.068,27.721-25.429,43.08-39.204c0,28.248,0,54.912,0,82.283
		c24.012,0,46.788,0,70.979,0c0-10.416-0.527-20.831,0.181-31.26c0.348-4.057,2.292-9,5.292-11.832
		C1448.736,1345.04,1463.039,1332.5,1478.928,1318.196z"/>
	<path fill="#FFFFFF" d="M334.512,1344.68c-13.416,10.068-25.956,19.598-38.496,29.137c-9.708-11.123-18.72-22.429-28.607-32.845
		c-55.62-59.16-142.32-36.203-178.524,16.248c-41.844,60.396-41.316,141.444,4.236,197.244
		c32.496,39.912,74.159,58.272,125.724,45.385c27.9-7.067,48.564-25.429,66.036-47.677c5.832-7.416,10.416-15.54,16.067-23.136
		c1.416-1.765,4.943-3.528,6.708-3c14.305,5.124,28.429,10.775,45.204,17.124c-10.775,12.54-19.597,25.248-30.553,35.315
		c-45.204,41.677-99.24,57.563-159.982,52.093c-37.44-3.36-72.217-14.484-101.005-39.372
		c-41.676-35.845-62.688-82.465-61.271-137.028c1.956-72.576,35.16-129.264,102.432-157.872
		c69.048-29.136,138.444-24.359,202.188,19.788c6.708,4.597,12.708,10.597,18.72,16.068
		C327.096,1335.86,330.276,1340.096,334.512,1344.68z"/>
	<path fill="#FFFFFF" d="M2171.484,1284.476c15.888,0,31.428,0,48.203,0c0,43.97,0,87.756,0,131.028
		c14.483-5.292,27.721-12.36,41.845-15.012c58.979-11.474,114.42,28.956,122.903,88.296c3.528,24.372,2.293,48.204-6.181,71.34
		c-21.371,59.16-91.823,84.048-149.207,53.148c-2.473-1.416-5.125-2.82-8.473-4.766c-0.348,4.598-0.889,8.473-1.236,12.888
		c-15.888,0-31.606,0-48.035,0C2171.484,1509.438,2171.484,1397.479,2171.484,1284.476z M2219.867,1513.315
		c0,16.248,0,32.315,0,48.563c0,28.08,1.057,29.316,29.137,34.26c32.315,5.652,57.924-4.416,73.451-29.314
		c9.18-14.652,12.889-30.9,13.596-47.677c1.057-23.305-2.472-45.731-16.596-65.341c-23.664-33.19-66.924-31.26-96.06-15.358
		c-2.125,1.234-3.529,5.65-3.529,8.832C2219.867,1469.18,2219.867,1491.248,2219.867,1513.315z"/>
	<path fill="#FFFFFF" d="M419.977,1621.568c-16.957,0-32.316,0-48.024,0c0-112.488,0-224.438,0-336.912c15.889,0,31.429,0,48.024,0
		c0,47.146,0,94.114,0,142.848c6.18-4.944,10.943-8.832,15.72-12.36c28.788-21.539,60.744-21.371,92.353-10.234
		c24.372,8.65,32.315,31.08,35.844,54.562c1.416,9.89,1.765,19.956,1.765,29.845c0.181,43.788,0,87.589,0,132.084
		c-16.067,0-31.428,0-48.563,0c0-3.359,0-6.707,0-10.067c-0.181-44.676-0.349-89.532-0.889-134.196
		c-0.181-11.832-2.651-23.304-11.124-32.664c-20.483-22.066-58.979-20.304-78.048,3.182c-6.181,7.764-7.067,16.428-7.067,25.606
		c0,45.912,0,91.824,0,137.736C419.977,1614.32,419.977,1617.5,419.977,1621.568z"/>
	<path fill="#FFFFFF" d="M1150.488,1397.66c28.607,0.526,55.619,6.708,78.048,25.428c31.261,26.136,40.261,61.092,37.44,99.948
		c-5.474,73.812-64.633,109.476-132.793,102.42c-34.428-3.528-63.396-17.124-82.812-46.968
		c-29.844-45.732-21.899-117.78,16.776-152.748c18.72-16.776,41.146-24.54,65.688-27.192
		C1138.656,1398.188,1144.488,1398.008,1150.488,1397.66z M1082.327,1506.968c-2.292,28.428,9.708,62.16,28.08,79.992
		c21.013,20.304,50.147,21.54,71.867,3.18c41.677-35.496,45.912-110.544,8.473-150.624c-22.428-23.844-57.924-24.72-81.048-1.416
		C1090.813,1456.988,1084.092,1481,1082.327,1506.968z"/>
	<path fill="#FFFFFF" d="M2039.579,1315.016c-45.023-1.584-88.823-3-133.668-4.416c0,104.532,0,207.66,0,311.316
		c-16.596,0-32.315,0-49.271,0c0-103.296,0-206.604,0-310.956c-48.912,1.416-96.769,2.652-147.096,4.056
		c9.359-10.596,17.663-20.136,26.314-29.314c1.236-1.236,4.416-0.89,6.89-0.89c89.352,0,178.871-0.18,268.224,0.182
		c3.888,0,8.832,2.818,11.472,5.832C2028.455,1298.072,2033.568,1306.364,2039.579,1315.016z"/>
	<path fill="#FFFFFF" d="M2409.516,1402.256c15.889,0,31.08,0,47.677,0c0,3.36,0,6.528,0,9.708c0,43.788-0.181,87.588,0.181,131.557
		c0,8.473,1.056,17.123,3.359,25.248c4.764,16.248,16.428,25.429,33.553,26.845c13.066,1.056,25.955-1.058,37.08-8.474
		c10.943-7.234,16.955-16.596,16.775-30.72c-0.709-47.676-0.181-95.352-0.181-143.028c0-3.526,0-6.888,0-10.774
		c16.596,0,31.956,0,48.204,0c0,72.924,0,145.68,0,219.132c-15.721,0-31.428,0-48.204,0c0-7.068,0-13.944,0-22.428
		c-4.944,4.056-8.304,6.708-11.651,9.54c-29.664,25.08-67.633,21.19-93.769,8.304c-21.192-10.596-31.788-29.844-32.496-52.271
		C2408.627,1510.676,2409.516,1456.808,2409.516,1402.256z"/>
	<path fill="#FFFFFF" d="M643.355,1468.64c-13.596-5.472-26.136-10.416-39.203-15.72c3.359-11.304,10.235-19.956,18.191-27.72
		c32.137-31.429,84.229-36.372,122.195-12.013c20.137,12.889,29.483,31.429,29.664,54.911c0.349,32.316,0,64.802,0.181,97.116
		c0,7.944,0.708,15.888,1.943,23.664c2.473,14.484,8.473,18.36,22.607,15.54c1.236,8.832-2.473,14.832-12.012,16.956
		c-18.899,4.236-33.731-4.235-46.62-16.956c-2.124-1.943-3.708-4.236-6-6.888c-28.956,31.26-64.633,33.19-102.769,24.19
		c-23.844-5.65-36.372-21.898-40.439-44.854c-4.235-24.012,0.708-46.092,23.137-59.16c17.124-10.067,36.023-17.124,54.216-25.08
		c12.36-5.292,25.428-9.18,37.788-14.832c14.124-6.359,19.248-16.775,16.248-30.372c-3.708-16.428-14.652-25.956-29.844-25.956
		c-20.306,0-34.08,9.89-42.912,30.721C647.232,1456.988,645.468,1462.292,643.355,1468.64z M724.584,1493.54
		c-14.305,6-26.316,10.775-37.969,16.068c-15.54,7.066-28.607,17.304-38.677,31.078c-14.304,20.138-7.235,48.564,13.944,56.328
		c19.597,7.236,46.26-1.234,58.092-18.72c2.124-3,4.416-6.888,4.416-10.235C724.752,1543.688,724.584,1519.328,724.584,1493.54z"/>
	<path fill="#FFFFFF" d="M3000,1401.896c-7.068,15.541-13.416,29.664-19.775,43.788c-40.439,89.354-80.881,178.704-121.141,268.044
		c-2.82,6.36-6.181,8.652-13.068,8.306c-14.123-0.528-28.08-0.181-43.26-0.181c1.584-3,2.651-5.293,3.707-7.597
		c18.541-34.26,37.262-68.688,55.98-102.948c3-5.65,3.18-10.234,0.348-16.248c-28.788-61.632-57.216-123.61-85.822-185.411
		c-1.058-2.291-1.766-4.765-3.182-8.305c17.124,0,33.192-0.348,49.26,0.35c2.293,0,5.125,4.056,6.36,6.888
		c18.9,45.552,37.607,91.296,56.328,136.848c1.416,3.528,3,6.89,5.124,11.652c1.764-3.36,3-5.472,3.888-7.764
		c20.306-46.62,40.608-93.062,60.744-139.682c2.472-5.472,4.943-8.304,11.472-7.942
		C2977.752,1402.256,2988.168,1401.896,3000,1401.896z"/>
	<path fill="#FFFFFF" d="M1766.4,1492.136c-54.037,0-107.364,0-160.692,0c-5.832,29.316,3.709,72.756,31.957,92.172
		c29.663,20.306,69.924,15.36,112.128-14.65c2.818,2.65,5.65,5.292,9,8.472c-12.36,19.428-28.08,34.08-49.272,41.496
		c-34.428,11.832-68.688,9.888-100.656-7.236c-36.371-19.428-51.562-52.8-53.676-92.352c-0.888-15.012,0.348-30.9,4.236-45.384
		c11.472-43.262,48.384-72.926,93.588-75.396c16.775-0.888,34.428,0,50.496,4.236
		C1742.916,1413.908,1765.344,1446.92,1766.4,1492.136z M1612.248,1468.472c34.26,0,68.508,0,102.768,0
		c0.527-23.136-19.775-45.552-42.552-47.676C1643.508,1418.144,1616.484,1439.504,1612.248,1468.472z"/>
	<path fill="#FFFFFF" d="M2127.696,1622.096c-16.068,0-31.607,0-47.677,0c0-112.487,0-224.616,0-337.452c15.889,0,31.608,0,47.677,0
		C2127.696,1397.132,2127.696,1509.08,2127.696,1622.096z"/>
	<path fill="#FFFFFF" d="M1010.988,1621.736c-16.248,0-31.607,0-47.496,0c0-112.31,0-224.438,0-337.094c15.721,0,31.261,0,47.496,0
		C1010.988,1396.952,1010.988,1508.899,1010.988,1621.736z"/>
	<path fill="#FFFFFF" d="M2674.031,1621.916c-16.068,0-31.607,0-47.855,0c0-72.396,0-145.5,0-219.132c15.721,0,31.08,0,47.496,0
		c0,8.832,0,18.191,0,29.314c4.056-3.526,6.527-5.65,9-7.942c14.304-12.54,30.19-21.372,49.438-22.608
		c2.652-0.18,7.068,1.764,8.125,3.888c7.597,15.89,14.651,31.956,22.775,49.802c-4.765-1.944-8.124-3.182-11.304-4.416
		c-18.192-7.766-37.08-9-56.148-4.416c-15.012,3.526-21.191,11.304-21.372,26.664c-0.18,46.092-0.18,92.352-0.18,138.442
		C2674.031,1614.5,2674.031,1617.68,2674.031,1621.916z"/>
	<path fill="#FFFFFF" d="M868.488,1402.604c0,9,0,18.013,0,29.483c20.136-19.776,41.496-31.956,68.867-31.08
		c0,15.181,0,29.845,0,43.44c-12.18,0-24.371-0.35-36.552,0.18c-5.832,0.348-11.651,1.764-16.956,4.057
		c-9.888,4.235-15.181,10.943-15.181,22.955c0.528,47.148-0.18,94.116-0.348,141.266c0,2.65-0.18,5.124-0.349,8.472
		c-16.067,0-31.788,0-47.855,0c0-72.924,0-145.5,0-218.784C836.172,1402.604,851.712,1402.604,868.488,1402.604z"/>
	<path fill="#FFFFFF" d="M2033.748,1621.388c-14.832,0-29.664,0-44.855,0c0-66.576,0-132.61,0-199.354c15.012,0,29.483,0,44.855,0
		C2033.748,1488.248,2033.748,1554.464,2033.748,1621.388z"/>
	<path fill="#FFFFFF" d="M2011.32,1405.424c-8.124-12.54-15.721-24.012-22.956-35.664c-0.888-1.584-0.888-4.764,0-6.359
		c7.235-11.651,14.832-23.137,22.956-35.495c8.304,12.54,15.888,24.19,23.304,36.022c0.889,1.236,0.889,4.057,0,5.292
		C2027.22,1381.231,2019.444,1392.896,2011.32,1405.424z"/>
</g>
</svg>
