<?xml version="1.0" encoding="UTF-8"?>
<svg width="58px" height="54px" viewBox="0 0 58 54" version="1.1" xmlns="http://www.w3.org/2000/svg" xmlns:xlink="http://www.w3.org/1999/xlink">
    <!-- Generator: sketchtool 54.1 (76490) - https://sketchapp.com -->
    <title>0205AC28-E5DC-4E48-BF69-31D488926761</title>
    <desc>Created with sketchtool.</desc>
    <g id="Page-1" stroke="none" stroke-width="1" fill="none" fill-rule="evenodd">
        <g id="About" transform="translate(-19.000000, -28.000000)" fill-rule="nonzero">
            <g id="MaireÌad-logo-01" transform="translate(19.000000, 28.000000)">
                <g transform="translate(0.000000, 0.000000)">
                    <polygon id="Path" fill="#231F20" points="1.06196216 0.369426752 0.369426752 0.369426752 0.369426752 53.566879 15.1430469 53.566879 15.1464968 0.373159545"></polygon>
                    <g id="Group" transform="translate(14.777070, 0.369427)">
                        <path d="M0.519857143,0.5 L0.519857143,0.4945" id="Path" fill="#231F20"></path>
                        <polygon id="Path" fill="#FFFFFF" points="0.0912857143 0.5 0.0912857143 0.4945 0.948428571 0.4945"></polygon>
                    </g>
                    <polygon id="Path" fill="#231F20" points="57.1704792 0.369426752 42.8535032 28.6732068 42.8535032 53.566879 57.6305732 53.566879 57.6305732 0.369426752"></polygon>
                    <polygon id="Path" fill="#231F20" points="35.7459438 40.4471451 15.8422605 0.369426752 15.1464968 0.369426752 15.1464968 28.0375328 21.5673762 40.6290131 35.8343949 40.6369427"></polygon>
                    <g id="Group">
                        <polygon id="Path" fill="#231F20" points="42.6856851 28.6361973 36.4742838 40.817712 35.9237339 40.8197667 29.1190865 27.0285102 42.2219424 0.399257082 42.6856851 0.399257082 57.0921907 0.397844465"></polygon>
                        <path d="M57.7218315,0.012585138 L57.7218315,0.012585138 L57.0375344,0.012585138 L56.8558182,0.012585138 L56.8558182,0.012585138 L41.9817118,0.0139977555 L29.1145854,26.1642451 L16.1921596,0 L14.8714058,0 L14.8714058,0.00372417349 L0,0 L0,53.8451277 L15.6410953,53.8451277 L15.6427672,29.7790049 L21.433765,41.1950093 L35.6826031,41.2029713 L35.6841463,41.205925 L36.3899202,41.2032281 L36.5258537,41.2033566 L36.5255965,41.2027145 L36.7112993,41.2020724 L42.2998758,30.2460676 L42.2998758,53.8575844 L57.9409712,53.8575844 L57.9409712,0.012585138 L57.7218315,0.012585138 Z M14.8715344,23.1886305 L14.8694767,53.074609 L0.771618625,53.074609 L0.771618625,0.770518653 L14.8715344,0.774114407 L14.8715344,23.1886305 Z M21.9080532,40.424619 L15.643153,28.0747461 L15.643153,23.0787031 L15.644439,0.770518653 L15.7123415,0.770518653 L31.7072239,33.146043 L35.3021951,40.4320674 L21.9080532,40.424619 Z M36.2372683,40.4333516 L36.1633215,40.4336084 L29.5491353,27.0282533 L42.4623016,0.784516409 L56.4626785,0.783232211 L52.375286,8.79495675 L42.3418004,28.461418 L36.2372683,40.4333516 Z M43.0714945,53.0870658 L43.0714945,28.7334111 L57.1693525,1.09567753 L57.1693525,53.0870658 L43.0714945,53.0870658 Z" id="Shape" fill="#FFFFFF"></path>
                    </g>
                </g>
            </g>
        </g>
    </g>
</svg>